<mxfile host="app.diagrams.net" modified="2023-11-13T15:57:54.005Z" agent="Mozilla/5.0 (Windows NT 10.0; Win64; x64) AppleWebKit/537.36 (KHTML, like Gecko) Chrome/119.0.0.0 Safari/537.36" etag="vADU3vv7kZ9tGARHXxtB" version="22.1.0" type="github">
  <diagram name="第 1 页" id="VXZyrihvDa2prKkC_Pbu">
    <mxGraphModel dx="2522" dy="1317" grid="0" gridSize="10" guides="1" tooltips="1" connect="1" arrows="1" fold="1" page="1" pageScale="1" pageWidth="827" pageHeight="1169" math="0" shadow="0">
      <root>
        <mxCell id="0" />
        <mxCell id="1" parent="0" />
        <mxCell id="dVjBlAb2x-MTVGUW3b8g-1" value="excavate" style="text;html=1;align=center;verticalAlign=middle;resizable=0;points=[];autosize=1;strokeColor=none;fillColor=none;" vertex="1" parent="1">
          <mxGeometry x="262" width="70" height="30" as="geometry" />
        </mxCell>
        <mxCell id="dVjBlAb2x-MTVGUW3b8g-2" value="density" style="text;html=1;align=center;verticalAlign=middle;resizable=0;points=[];autosize=1;strokeColor=none;fillColor=none;" vertex="1" parent="1">
          <mxGeometry x="163" y="45" width="56" height="26" as="geometry" />
        </mxCell>
        <mxCell id="dVjBlAb2x-MTVGUW3b8g-3" value="nuclear" style="text;html=1;align=center;verticalAlign=middle;resizable=0;points=[];autosize=1;strokeColor=none;fillColor=none;" vertex="1" parent="1">
          <mxGeometry x="213" y="106" width="57" height="26" as="geometry" />
        </mxCell>
        <mxCell id="dVjBlAb2x-MTVGUW3b8g-4" value="mutual" style="text;strokeColor=none;align=center;fillColor=none;html=1;verticalAlign=middle;whiteSpace=wrap;rounded=0;" vertex="1" parent="1">
          <mxGeometry x="292" y="56" width="60" height="30" as="geometry" />
        </mxCell>
      </root>
    </mxGraphModel>
  </diagram>
</mxfile>
